# xmcd
#
# Track frame offsets: 
#        150
#        14100
#        28620
#        42577
#        55000
#        66687
#        79702
#        92912
#        105865
#        120825
#        133290
#        147055
#        161655
#        175810
#        187315
#        202787
#        216425
#        230065
#        245160
#
# Disc length: 3457 seconds
#
# Revision: 0
# Processed by: cddbd v1.5.2PL0 Copyright (c) Steve Scherf et al.
# Submitted via: ExactAudioCopy v0.99pb5
#
DISCID=1b0d7f13
DTITLE=Abba - Ring Ring
DYEAR=1973
DGENRE=Classical
TTITLE0=Ring Ring
TTITLE1=Another Town, Another Train
TTITLE2=Disillusion
TTITLE3=People Need Love
TTITLE4=I Saw It in the Mirror
TTITLE5=Nina, Pretty Ballerina
TTITLE6=Love Isn't Easy (But It Sure Is Hard Enough)
TTITLE7=Me and Bobby and Bobby's Brother
TTITLE8=He Is Your Brother
TTITLE9=She's My Kind of Girl
TTITLE10=I Am Just a Girl
TTITLE11=Rock'n Roll Band
TTITLE12=Ring Ring (Bara Du Slog En Signal) (Swedish Version)
TTITLE13=Åh, Vilka Tider
TTITLE14=Merry-Go-Round
TTITLE15=Santa Rosa
TTITLE16=Ring Ring (Spanish Version)
TTITLE17=Wer Im Wartesaal Der Liebe Steht
TTITLE18=Ring Ring (German Version)
EXTD=
EXTT0=
EXTT1=
EXTT2=
EXTT3=
EXTT4=
EXTT5=
EXTT6=
EXTT7=
EXTT8=
EXTT9=
EXTT10=
EXTT11=
EXTT12=
EXTT13=
EXTT14=
EXTT15=
EXTT16=
EXTT17=
EXTT18=
PLAYORDER=
